<svg xmlns="http://www.w3.org/2000/svg" width="760.221" height="175.969" viewBox="0 0 760.221 175.969">
  <defs>
    <style>
      .cls-1 {
        fill-rule: evenodd;
      }
    </style>
  </defs>
  <path id="Login" class="cls-1" d="M339.2,566.717l-0.066-125.549-44.41.023,0.089,167.261,108.428-.057-0.021-41.712Zm171.169,45.875c52.088-.027,91.912-37.92,91.885-87.725-0.026-50.22-39.89-88.279-91.873-88.251S418.57,474.744,418.6,524.964C418.623,574.768,458.383,612.62,510.366,612.592Zm0.082-42.437c-26.563.014-46.91-19.794-46.924-45.526-0.013-25.836,20.313-45.769,46.876-45.783s46.91,19.9,46.923,45.733C557.337,550.312,537.01,570.141,510.448,570.155ZM800.99,512.1l-85.809.045,0.017,33.1,38.288-.02c-0.614,15.979-15.032,25.74-35.265,25.751-30.92.016-49.713-22.8-49.725-46.251-0.014-25.836,21.869-46.288,46.771-46.3,12.347-.007,25.735,5.589,35.078,14.3l24.574-33.735c-13.807-12.755-38.4-21.769-59.674-22.069-51.88.027-92.117,40.2-92.092,87.933s40.2,87.345,93.326,87.317c47.522-.025,85.9-32.937,85.869-83.78A111.26,111.26,0,0,0,800.99,512.1Zm29.564,96.066,44.409-.024-0.088-167.26-44.409.023ZM1010.33,440.607l0.04,81.555L924.621,439.2l-14.319.008,0.089,169.024,44.409-.023-0.043-81.763,86.063,83.274,14.11-.007-0.09-169.129Z" transform="translate(-294.719 -436.625)"/>
</svg>
